<svg xmlns="http://www.w3.org/2000/svg" xmlns:xlink="http://www.w3.org/1999/xlink" width="91" height="64" viewBox="0 0 91 64"><defs><clipPath id="a"><rect width="90.816" height="60" fill="#f8f8f8"/></clipPath></defs><g transform="translate(14652 -6443)"><g transform="translate(-14652 6445)"><g clip-path="url(#a)"><path d="M132.773,64.266a5.321,5.321,0,1,1,5.323,5.322,5.322,5.322,0,0,1-5.323-5.322" transform="translate(-92.686 -41.147)" fill="#f8f8f8"/><path d="M78.181,98.059h1.783v1.607H78.181Zm-.148,2.426h2.1v7.662h-2.1Z" transform="translate(-54.473 -68.453)" fill="#f8f8f8"/><path d="M87.553,112.108l1.3-1.009a1.957,1.957,0,0,0,1.78.99,1.792,1.792,0,0,0,.87-.185.594.594,0,0,0,.322-.53.523.523,0,0,0-.287-.484,3.587,3.587,0,0,0-1.045-.32,3.966,3.966,0,0,1-1.9-.78,2.189,2.189,0,0,1-.735-1.668,2.234,2.234,0,0,1,.829-1.8,3.292,3.292,0,0,1,2.171-.689,3.23,3.23,0,0,1,2.689,1.206l-1.229.987a1.914,1.914,0,0,0-1.46-.735,1.424,1.424,0,0,0-.747.183.535.535,0,0,0-.3.462.51.51,0,0,0,.263.458,3.912,3.912,0,0,0,1.009.322,4.779,4.779,0,0,1,2.012.782,2.134,2.134,0,0,1,.747,1.709,2.3,2.3,0,0,1-.84,1.859,3.275,3.275,0,0,1-2.2.7,3.472,3.472,0,0,1-3.254-1.458" transform="translate(-61.119 -73.74)" fill="#f8f8f8"/><path d="M113.269,107.632v4.62a2.376,2.376,0,0,0,1.745-.539,2.669,2.669,0,0,0,.506-1.851,2.37,2.37,0,0,0-.518-1.688,2.075,2.075,0,0,0-1.586-.542Zm-2.1,6.121V106.1h2.64a3.9,3.9,0,0,1,2.872,1.02,3.722,3.722,0,0,1,1.047,2.8,3.584,3.584,0,0,1-1.564,3.252,3.408,3.408,0,0,1-1.034.46,5.725,5.725,0,0,1-1.343.123Z" transform="translate(-77.604 -74.063)" fill="#f8f8f8"/><path d="M135.672,113.753V106.1h5.516V107.7h-3.41v1.367h2.168v1.608h-2.168v1.472h3.569v1.605Z" transform="translate(-94.71 -74.063)" fill="#f8f8f8"/><path d="M157.712,113.753V106.1h3.033l1.146,3.788,1.218-3.788h3.014v7.658h-2.106v-5.511l-1.723,5.511h-1.25l-1.691-5.511v5.511Z" transform="translate(-110.095 -74.063)" fill="#f8f8f8"/><path d="M189.974,98.059h1.78v1.607h-1.78Zm-.151,2.426h2.1v7.662h-2.1Z" transform="translate(-132.512 -68.453)" fill="#f8f8f8"/><path d="M203.357,107.55v1.6h1.231c.634,0,.952-.273.952-.815,0-.522-.318-.785-.952-.785Zm-2.1,6.2V106.1h3.354a5.946,5.946,0,0,1,1.757.216,1.886,1.886,0,0,1,.988.746,2.032,2.032,0,0,1,.388,1.217,2.053,2.053,0,0,1-1.408,1.942l1.378,3.536h-2.347l-1.053-3.167h-.957v3.167Z" transform="translate(-140.493 -74.063)" fill="#f8f8f8"/><path d="M13.451,79.668c.164.328,15.787,7.026,34.727,4.746C72.8,81.451,79.906,71.433,80.231,63.482c.373-9.064-12.758-19.588-34.858-19.588-21.054,0-34.724,9.815-34.724,19.364,0,6.181,6.315,13.385,20.529,14.463,5.462.413,19.443-.634,29.77-3.293A70.373,70.373,0,0,1,39.1,80.379C20.37,82.635,0,76.58,0,63.34c0-13.615,21.029-24.4,45.481-24.4,26.68,0,45.335,12.17,45.335,24.519,0,12.054-18.757,23.723-48.12,23.723-18.332,0-29.081-7.286-29.245-7.518" transform="translate(0 -27.186)" fill="#f8f8f8"/><path d="M132.773,5.322a5.321,5.321,0,1,1,5.323,5.325,5.323,5.323,0,0,1-5.323-5.325" transform="translate(-92.686)" fill="#f8f8f8"/></g></g><rect width="91" height="64" transform="translate(-14652 6443)" fill="none"/></g></svg>