<svg xmlns="http://www.w3.org/2000/svg" xmlns:xlink="http://www.w3.org/1999/xlink" width="500" zoomAndPan="magnify" viewBox="0 0 375 374.999991" height="500" preserveAspectRatio="xMidYMid meet" version="1.0"><defs><g/><clipPath id="b90828e918"><path d="M 201.882812 85.589844 L 246.769531 85.589844 L 246.769531 232.871094 L 201.882812 232.871094 Z M 201.882812 85.589844 " clip-rule="nonzero"/></clipPath><clipPath id="98063644d7"><path d="M 246.769531 100.554688 L 246.769531 232.773438 L 201.882812 217.8125 L 201.882812 85.589844 Z M 246.769531 100.554688 " clip-rule="nonzero"/></clipPath><clipPath id="9c559b2b70"><path d="M 164.359375 85.578125 L 201.890625 85.578125 L 201.890625 127.800781 L 164.359375 127.800781 Z M 164.359375 85.578125 " clip-rule="nonzero"/></clipPath><clipPath id="b9ab6ed99d"><path d="M 164.359375 98.09375 L 164.359375 127.800781 L 201.890625 115.289062 L 201.890625 85.582031 Z M 164.359375 98.09375 " clip-rule="nonzero"/></clipPath><clipPath id="f7a0bf18b3"><path d="M 147.421875 121.90625 L 179.625 121.90625 L 179.625 210.214844 L 147.421875 210.214844 Z M 147.421875 121.90625 " clip-rule="nonzero"/></clipPath><clipPath id="6ec067a796"><path d="M 179.625 132.640625 L 179.625 210.160156 L 147.421875 199.425781 L 147.421875 121.90625 Z M 179.625 132.640625 " clip-rule="nonzero"/></clipPath><clipPath id="a464c24e89"><path d="M 122.058594 121.820312 L 147.429688 121.820312 L 147.429688 183.660156 L 122.058594 183.660156 Z M 122.058594 121.820312 " clip-rule="nonzero"/></clipPath><clipPath id="6f42d72775"><path d="M 122.058594 130.351562 L 122.058594 183.660156 L 147.429688 175.203125 L 147.429688 121.894531 Z M 122.058594 130.351562 " clip-rule="nonzero"/></clipPath></defs><g clip-path="url(#b90828e918)"><g clip-path="url(#98063644d7)"><path fill="#3d3b3a" d="M 246.769531 85.589844 L 246.769531 232.695312 L 201.882812 232.695312 L 201.882812 85.589844 Z M 246.769531 85.589844 " fill-opacity="1" fill-rule="nonzero"/></g></g><g clip-path="url(#9c559b2b70)"><g clip-path="url(#b9ab6ed99d)"><path fill="#c0c0c0" d="M 164.359375 127.800781 L 164.359375 85.578125 L 201.890625 85.578125 L 201.890625 127.800781 Z M 164.359375 127.800781 " fill-opacity="1" fill-rule="nonzero"/></g></g><g clip-path="url(#f7a0bf18b3)"><g clip-path="url(#6ec067a796)"><path fill="#3d3b3a" d="M 179.625 121.90625 L 179.625 210.214844 L 147.421875 210.214844 L 147.421875 121.90625 Z M 179.625 121.90625 " fill-opacity="1" fill-rule="nonzero"/></g></g><g clip-path="url(#a464c24e89)"><g clip-path="url(#6f42d72775)"><path fill="#c0c0c0" d="M 122.058594 183.660156 L 122.058594 121.921875 L 147.429688 121.921875 L 147.429688 183.660156 Z M 122.058594 183.660156 " fill-opacity="1" fill-rule="nonzero"/></g></g><g fill="#000000" fill-opacity="1"><g transform="translate(51.936078, 270.378738)"><g><path d="M 11.25 -11.1875 L 6.390625 -6.25 L 6.390625 0 L 3.875 0 L 3.875 -23.796875 L 6.390625 -23.796875 L 6.390625 -9.40625 L 20.359375 -23.796875 L 23.25 -23.796875 L 12.953125 -13.015625 L 23.953125 0 L 20.96875 0 Z M 11.25 -11.1875 "/></g></g></g><g fill="#000000" fill-opacity="1"><g transform="translate(76.0878, 270.378738)"><g><path d="M 13.453125 0.203125 C 10.378906 0.203125 7.976562 -0.675781 6.25 -2.4375 C 4.53125 -4.207031 3.671875 -6.78125 3.671875 -10.15625 L 3.671875 -23.796875 L 6.1875 -23.796875 L 6.1875 -10.265625 C 6.1875 -7.503906 6.804688 -5.441406 8.046875 -4.078125 C 9.296875 -2.722656 11.097656 -2.046875 13.453125 -2.046875 C 15.835938 -2.046875 17.648438 -2.722656 18.890625 -4.078125 C 20.140625 -5.441406 20.765625 -7.503906 20.765625 -10.265625 L 20.765625 -23.796875 L 23.21875 -23.796875 L 23.21875 -10.15625 C 23.21875 -6.78125 22.359375 -4.207031 20.640625 -2.4375 C 18.929688 -0.675781 16.535156 0.203125 13.453125 0.203125 Z M 13.453125 0.203125 "/></g></g></g><g fill="#000000" fill-opacity="1"><g transform="translate(102.990981, 270.378738)"><g><path d="M 21.03125 -2.171875 L 21.03125 0 L 1.53125 0 L 1.53125 -1.734375 L 17.296875 -21.609375 L 1.765625 -21.609375 L 1.765625 -23.796875 L 20.625 -23.796875 L 20.625 -22.0625 L 4.890625 -2.171875 Z M 21.03125 -2.171875 "/></g></g></g><g fill="#000000" fill-opacity="1"><g transform="translate(125.104572, 270.378738)"><g><path d="M 20.703125 -2.171875 L 20.703125 0 L 3.875 0 L 3.875 -23.796875 L 20.1875 -23.796875 L 20.1875 -21.609375 L 6.390625 -21.609375 L 6.390625 -13.15625 L 18.6875 -13.15625 L 18.6875 -11.015625 L 6.390625 -11.015625 L 6.390625 -2.171875 Z M 20.703125 -2.171875 "/></g></g></g><g fill="#000000" fill-opacity="1"><g transform="translate(147.829611, 270.378738)"><g><path d="M 12.03125 -8.21875 L 12.03125 0 L 9.546875 0 L 9.546875 -8.21875 L 0.03125 -23.796875 L 2.71875 -23.796875 L 10.875 -10.4375 L 19.03125 -23.796875 L 21.546875 -23.796875 Z M 12.03125 -8.21875 "/></g></g></g><g fill="#000000" fill-opacity="1"><g transform="translate(169.399708, 270.378738)"><g/></g></g><g fill="#000000" fill-opacity="1"><g transform="translate(178.299501, 270.378738)"><g><path d="M 20.625 -11.890625 L 23.046875 -11.890625 L 23.046875 -2.828125 C 21.929688 -1.847656 20.613281 -1.097656 19.09375 -0.578125 C 17.582031 -0.0546875 15.988281 0.203125 14.3125 0.203125 C 11.925781 0.203125 9.78125 -0.316406 7.875 -1.359375 C 5.976562 -2.398438 4.484375 -3.84375 3.390625 -5.6875 C 2.304688 -7.539062 1.765625 -9.609375 1.765625 -11.890625 C 1.765625 -14.179688 2.304688 -16.25 3.390625 -18.09375 C 4.484375 -19.9375 5.976562 -21.378906 7.875 -22.421875 C 9.78125 -23.472656 11.9375 -24 14.34375 -24 C 16.15625 -24 17.816406 -23.707031 19.328125 -23.125 C 20.847656 -22.550781 22.128906 -21.695312 23.171875 -20.5625 L 21.609375 -18.96875 C 19.734375 -20.820312 17.34375 -21.75 14.4375 -21.75 C 12.519531 -21.75 10.785156 -21.320312 9.234375 -20.46875 C 7.679688 -19.625 6.460938 -18.445312 5.578125 -16.9375 C 4.691406 -15.4375 4.25 -13.753906 4.25 -11.890625 C 4.25 -10.035156 4.691406 -8.359375 5.578125 -6.859375 C 6.460938 -5.367188 7.671875 -4.191406 9.203125 -3.328125 C 10.742188 -2.472656 12.476562 -2.046875 14.40625 -2.046875 C 16.851562 -2.046875 18.925781 -2.65625 20.625 -3.875 Z M 20.625 -11.890625 "/></g></g></g><g fill="#000000" fill-opacity="1"><g transform="translate(204.557279, 270.378738)"><g><path d="M 3.875 -23.796875 L 6.390625 -23.796875 L 6.390625 -2.171875 L 19.71875 -2.171875 L 19.71875 0 L 3.875 0 Z M 3.875 -23.796875 "/></g></g></g><g fill="#000000" fill-opacity="1"><g transform="translate(224.564815, 270.378738)"><g><path d="M 14.28125 0.203125 C 11.914062 0.203125 9.773438 -0.320312 7.859375 -1.375 C 5.953125 -2.425781 4.457031 -3.867188 3.375 -5.703125 C 2.300781 -7.546875 1.765625 -9.609375 1.765625 -11.890625 C 1.765625 -14.179688 2.300781 -16.242188 3.375 -18.078125 C 4.457031 -19.910156 5.953125 -21.351562 7.859375 -22.40625 C 9.773438 -23.46875 11.914062 -24 14.28125 -24 C 16.632812 -24 18.753906 -23.472656 20.640625 -22.421875 C 22.535156 -21.378906 24.023438 -19.9375 25.109375 -18.09375 C 26.203125 -16.25 26.75 -14.179688 26.75 -11.890625 C 26.75 -9.609375 26.203125 -7.539062 25.109375 -5.6875 C 24.023438 -3.84375 22.535156 -2.398438 20.640625 -1.359375 C 18.753906 -0.316406 16.632812 0.203125 14.28125 0.203125 Z M 14.28125 -2.046875 C 16.15625 -2.046875 17.847656 -2.46875 19.359375 -3.3125 C 20.878906 -4.164062 22.070312 -5.34375 22.9375 -6.84375 C 23.800781 -8.351562 24.234375 -10.035156 24.234375 -11.890625 C 24.234375 -13.753906 23.800781 -15.4375 22.9375 -16.9375 C 22.070312 -18.445312 20.878906 -19.625 19.359375 -20.46875 C 17.847656 -21.320312 16.15625 -21.75 14.28125 -21.75 C 12.394531 -21.75 10.6875 -21.320312 9.15625 -20.46875 C 7.625 -19.625 6.421875 -18.445312 5.546875 -16.9375 C 4.679688 -15.4375 4.25 -13.753906 4.25 -11.890625 C 4.25 -10.035156 4.679688 -8.351562 5.546875 -6.84375 C 6.421875 -5.34375 7.625 -4.164062 9.15625 -3.3125 C 10.6875 -2.46875 12.394531 -2.046875 14.28125 -2.046875 Z M 14.28125 -2.046875 "/></g></g></g><g fill="#000000" fill-opacity="1"><g transform="translate(253.064526, 270.378738)"><g><path d="M 18.859375 -12.265625 C 20.421875 -11.929688 21.625 -11.257812 22.46875 -10.25 C 23.320312 -9.238281 23.75 -7.941406 23.75 -6.359375 C 23.75 -4.316406 22.992188 -2.742188 21.484375 -1.640625 C 19.984375 -0.546875 17.757812 0 14.8125 0 L 3.875 0 L 3.875 -23.796875 L 14.140625 -23.796875 C 16.785156 -23.796875 18.835938 -23.257812 20.296875 -22.1875 C 21.765625 -21.125 22.5 -19.617188 22.5 -17.671875 C 22.5 -16.359375 22.175781 -15.242188 21.53125 -14.328125 C 20.882812 -13.410156 19.992188 -12.722656 18.859375 -12.265625 Z M 6.390625 -21.71875 L 6.390625 -13.078125 L 13.96875 -13.078125 C 15.894531 -13.078125 17.378906 -13.445312 18.421875 -14.1875 C 19.460938 -14.925781 19.984375 -16 19.984375 -17.40625 C 19.984375 -18.800781 19.460938 -19.867188 18.421875 -20.609375 C 17.378906 -21.347656 15.894531 -21.71875 13.96875 -21.71875 Z M 14.78125 -2.078125 C 16.914062 -2.078125 18.523438 -2.4375 19.609375 -3.15625 C 20.691406 -3.882812 21.234375 -5.019531 21.234375 -6.5625 C 21.234375 -9.53125 19.082031 -11.015625 14.78125 -11.015625 L 6.390625 -11.015625 L 6.390625 -2.078125 Z M 14.78125 -2.078125 "/></g></g></g><g fill="#000000" fill-opacity="1"><g transform="translate(278.676901, 270.378738)"><g><path d="M 18.796875 -6.359375 L 5.546875 -6.359375 L 2.6875 0 L 0.0625 0 L 10.9375 -23.796875 L 13.421875 -23.796875 L 24.296875 0 L 21.640625 0 Z M 17.875 -8.390625 L 12.171875 -21.171875 L 6.453125 -8.390625 Z M 17.875 -8.390625 "/></g></g></g><g fill="#000000" fill-opacity="1"><g transform="translate(303.032425, 270.378738)"><g><path d="M 3.875 -23.796875 L 6.390625 -23.796875 L 6.390625 -2.171875 L 19.71875 -2.171875 L 19.71875 0 L 3.875 0 Z M 3.875 -23.796875 "/></g></g></g></svg>